<svg width="800" height="786" viewBox="0 0 800 786" fill="none" xmlns="http://www.w3.org/2000/svg">
<path d="M798.736 141.475L632.905 644.115C630.832 650.404 626.423 655.516 620.49 658.506C616.964 660.282 613.156 661.18 609.324 661.18C606.709 661.18 604.085 660.762 601.533 659.919L560.053 646.236C551.694 643.479 547.154 634.468 549.911 626.111C552.667 617.752 561.689 613.212 570.036 615.969L604.839 627.449L766.269 138.156L450.16 33.8644L405.307 169.826C402.548 178.185 393.528 182.723 385.182 179.966C376.822 177.21 372.283 168.199 375.039 159.84L422.096 17.2028C426.395 4.19394 440.466 -2.89744 453.471 1.39457L782.933 110.092C789.224 112.164 794.338 116.574 797.328 122.509C800.317 128.445 800.816 135.18 798.736 141.475ZM472.157 127.132C473.816 127.68 475.498 127.94 477.154 127.94C483.841 127.94 490.074 123.694 492.284 116.992L497.036 102.59C499.795 94.2324 495.253 85.2216 486.896 82.463C478.542 79.7061 469.524 84.2442 466.769 92.6034L462.016 107.006C459.26 115.365 463.799 124.376 472.157 127.132ZM562.721 544.322L557.969 558.724C555.21 567.082 559.752 576.094 568.111 578.851C569.768 579.398 571.45 579.658 573.106 579.658C579.795 579.658 586.026 575.412 588.236 568.711L592.988 554.308C595.747 545.951 591.205 536.938 582.846 534.181C574.499 531.428 565.478 535.961 562.721 544.322ZM450.582 264.252C455.175 250.333 464.917 239.035 478.012 232.434C491.111 225.833 505.988 224.728 519.909 229.321C537.089 234.989 546.424 245.042 551.828 256.915C563.238 250.588 576.72 248.063 593.907 253.734C622.645 263.218 638.316 294.317 628.838 323.058C614.558 366.336 561.535 393.048 510.259 418.88C507.961 420.038 505.512 420.586 503.102 420.586C497.275 420.586 491.66 417.378 488.859 411.818C463.02 360.544 436.303 307.521 450.582 264.252ZM510.162 383.214C550.812 362.485 589.486 340.607 598.571 313.075C602.546 301.023 595.974 287.978 583.921 284.002C574.205 280.795 567.911 281.709 554.064 295.64C549.81 299.921 543.501 301.434 537.769 299.541C532.038 297.65 527.864 292.683 526.993 286.711C524.153 267.269 519.636 262.791 509.924 259.588C507.557 258.807 505.122 258.42 502.7 258.42C499.148 258.42 495.621 259.252 492.354 260.897C486.858 263.664 482.774 268.402 480.849 274.237C471.764 301.765 489.828 342.363 510.162 383.214ZM388.425 375.101V530.52C388.425 539.322 395.559 546.455 404.361 546.455C413.163 546.455 420.297 539.322 420.297 530.52V375.101C420.297 319.269 410.086 272.365 389.95 235.692C371.238 201.611 343.903 177.071 310.863 164.67L204.535 116.714C198.908 114.177 192.326 115.117 187.636 119.12C182.945 123.126 180.985 129.48 182.609 135.431L191.471 167.931C136.714 188.336 86.1908 231.603 47.908 291.249C46.2595 293.816 45.3831 296.805 45.3831 299.856V398.459C45.3831 407.261 52.517 414.395 61.3188 414.395H123.018C123.551 414.395 124.082 414.368 124.61 414.315C141.486 412.62 168.948 403.718 172.932 364.312C178.285 362.223 184.016 361.139 189.835 361.139C215.463 361.139 236.31 381.987 236.31 407.611C236.31 437.073 218.199 444.12 180.52 456.063C133.573 470.943 69.2778 491.323 69.2778 597.883V623.246C39.3488 623.317 15.0203 647.684 15.0203 677.633C15.0203 682.521 15.6825 687.366 16.9733 692.037C6.26981 702.175 4.14607e-07 716.332 4.14607e-07 731.467C-0.00177022 745.951 5.66779 759.597 15.9676 769.895C26.262 780.189 39.9083 785.861 54.3867 785.861H258.188C266.99 785.861 274.124 778.727 274.124 769.925C274.124 761.123 266.99 753.989 258.188 753.989H54.3867C48.4197 753.989 42.7785 751.635 38.5006 747.358C34.2246 743.082 31.8696 737.441 31.8714 731.471C31.8714 726.789 33.3339 722.327 35.9368 718.616H241.245C250.047 718.616 257.181 711.482 257.181 702.68C257.181 693.878 250.047 686.744 241.245 686.744H48.8482C47.568 683.887 46.8934 680.786 46.8934 677.638C46.8934 665.221 56.9931 655.119 69.4088 655.119L258.188 655.121C266.988 655.121 274.124 647.985 274.124 639.185C274.124 630.385 266.99 623.25 258.188 623.25L101.151 623.248V597.889C101.151 514.66 144.383 500.957 190.152 486.449C226.728 474.855 268.184 461.715 268.184 407.615C268.184 364.417 233.036 329.271 189.837 329.271C175.484 329.271 161.437 333.195 149.215 340.619C144.455 343.509 141.551 348.672 141.551 354.239C141.551 375.841 134.458 381.121 122.174 382.525H77.2545V363.221H84.0537C92.8555 363.221 99.9894 356.088 99.9894 347.286C99.9894 338.484 92.8555 331.35 84.0537 331.35H77.2545V304.592C114.069 248.899 164.171 208.551 215.289 193.577C223.624 191.136 228.468 182.47 226.182 174.091L222.25 159.668L297.038 193.397C297.65 193.717 298.282 193.999 298.934 194.238C355.809 215.119 388.425 281.041 388.425 375.101ZM231.06 251.62C222.259 251.62 215.125 258.754 215.125 267.556C215.125 276.358 222.259 283.492 231.06 283.492H234.623C243.425 283.492 250.559 276.358 250.559 267.556C250.559 258.754 243.425 251.62 234.623 251.62H231.06ZM522.515 605.366V752.12C522.515 770.724 507.376 785.859 488.769 785.859H342.017C323.411 785.859 308.274 770.724 308.274 752.12V605.366C308.274 586.76 323.411 571.623 342.017 571.623H488.769C507.376 571.623 522.515 586.759 522.515 605.366ZM490.644 605.366C490.644 604.369 489.767 603.495 488.769 603.495H342.017C341.02 603.495 340.146 604.369 340.146 605.366V752.12C340.146 753.115 341.02 753.988 342.017 753.988H488.769C489.766 753.988 490.644 753.115 490.644 752.12V605.366ZM444.985 634.017H441.477C432.675 634.017 425.541 641.151 425.541 649.952C425.541 658.754 432.675 665.888 441.477 665.888H444.985C453.786 665.888 460.92 658.754 460.92 649.952C460.92 641.151 453.786 634.017 444.985 634.017ZM444.983 691.591H441.475C432.673 691.591 425.54 698.724 425.54 707.526C425.54 716.328 432.673 723.462 441.475 723.462H444.983C453.785 723.462 460.919 716.328 460.919 707.526C460.919 698.724 453.783 691.591 444.983 691.591ZM389.316 634.017H385.808C377.007 634.017 369.873 641.151 369.873 649.952C369.873 658.754 377.007 665.888 385.808 665.888H389.316C398.118 665.888 405.252 658.754 405.252 649.952C405.252 641.151 398.118 634.017 389.316 634.017ZM389.314 691.591H385.807C377.005 691.591 369.871 698.724 369.871 707.526C369.871 716.328 377.005 723.462 385.807 723.462H389.314C398.116 723.462 405.25 716.328 405.25 707.526C405.25 698.724 398.116 691.591 389.314 691.591Z" fill="white"/>
</svg>
